{"title":"Rufus Hound - Being Rude 2011 DVDRiP XviD - VISUALiSE","uid":6833781,"size":863895233,"categoryP":"video","categoryS":"movies","magnet":"?xt=urn:btih:8b2a2b5b3fc4ea64c94d712743c5802384482e27&amp;dn=Rufus+Hound+-+Being+Rude+2011+DVDRiP+XviD+-+VISUALiSE&amp;tr=udp%3A%2F%2Ftracker.openbittorrent.com%3A80&amp;tr=udp%3A%2F%2Fopen.demonii.com%3A1337&amp;tr=udp%3A%2F%2Ftracker.coppersurfer.tk%3A6969&amp;tr=udp%3A%2F%2Fexodus.desync.com%3A6969","seeders":0,"leechers":1,"uploader":"LegendET","files":3,"time":1321956603,"description":"[center][img]http://www.aedes.us/b/qY9lg.jpg[/img]\n[code]\noooooo     oooo  o8o   .oooooo..o ooooo     ooo       .o.       ooooo         o8o   .oooooo..o oooooooooooo\n`888.     .8'   `&quot;'  d8P'    `Y8 `888'     `8'      .888.      `888'         `&quot;'  d8P'    `Y8 `888'     `8\n`888.   .8'   oooo  Y88bo.       888       8      .8&quot;888.      888         oooo  Y88bo.       888        \n `888. .8'    `888   `&quot;Y8888o.   888       8     .8' `888.     888         `888   `&quot;Y8888o.   888oooo8    \n  `888.8'      888       `&quot;Y88b  888       8    .88ooo8888.    888          888       `&quot;Y88b  888    &quot;    \n   `888'       888  oo     .d8P  `88.    .8'   .8'     `888.   888       o  888  oo     .d8P  888       o\n    `8'       o888o 8&quot;&quot;88888P'     `YbodP'    o88o     o8888o o888ooooood8 o888o 8&quot;&quot;88888P'  o888ooooood8\n[/code]\n\n\nTitle: Rufus Hound - Being Rude 2011 DVDRiP XviD - VISUALiSE\nFormat: Xvid\nLanguage: English\nSubtitles: No\nImdb: \n\nPlot:\nTV s Rufus Hound is a comedian presenter actor and the owner \nof a very fine moustache. You already know him as the star of \nCelebrity Juice, Let s Dance For Comic Relief (dressed as Cheryl Cole), \nArgumental, and of his own CBBC sitcom, Hounded. Now, in this brilliant \ndebut DVD, Rufus goes back to his stand-up roots in a stunning live show, \nrecorded at London s legendary 100 Club.\n\nSources:\nVideo: Whoever - Many Thanks  \nAudio: Whoever - Many Thanks  \n\nRelease Notes:\nVISUALiSE Bringing you \nRufus Hound - Being Rude 2011 DVDRiP XviD - VISUALiSE\n\nThanks to Whoever for this  \ndid our normal ran some fitlers and xtra tweaks to the \nvideo then muxed audio back to our encode  \n\nenjoy. \n\nInfo:\n\nVideo\nID                               : 0\nFormat                           : MPEG-4 Visual\nFormat profile                   : Advanced Simple@L5\nFormat settings, BVOP            : 2\nFormat settings, QPel            : No\nFormat settings, GMC             : No warppoints\nFormat settings, Matrix          : Default (H.263)\nCodec ID                         : XVID\nCodec ID/Hint                    : XviD\nDuration                         : 1h 10mn\nBit rate                         : 1 498 Kbps\nWidth                            : 716 pixels\nHeight                           : 336 pixels\nDisplay aspect ratio             : 2.526\nFrame rate                       : 25.000 fps\nColor space                      : YUV\nChroma subsampling               : 4:2:0\nBit depth                        : 8 bits\nScan type                        : Progressive\nCompression mode                 : Lossy\nBits/(Pixel*Frame)               : 0.249\nStream size                      : 754 MiB (92%)\n\nAudio\nID                               : 1\nFormat                           : AC-3\nFormat/Info                      : Audio Coding 3\nMode extension                   : CM (complete main)\nCodec ID                         : 2000\nDuration                         : 1h 10mn\nBit rate mode                    : Constant\nBit rate                         : 128 Kbps\nChannel(s)                       : 2 channels\nChannel positions                : Front: L R\nSampling rate                    : 48.0 KHz\nBit depth                        : 16 bits\nCompression mode                 : Lossy\nStream size                      : 64.4 MiB (8%)\nAlignment                        : Aligned on interleaves\nInterleave, duration             : 32 ms (0.80 video frame)\n\n\nScreens:[/center]","torrent":{"xt":"urn:btih:8b2a2b5b3fc4ea64c94d712743c5802384482e27","amp;dn":"Rufus+Hound+-+Being+Rude+2011+DVDRiP+XviD+-+VISUALiSE","amp;tr":["udp%3A%2F%2Ftracker.openbittorrent.com%3A80","udp%3A%2F%2Fopen.demonii.com%3A1337","udp%3A%2F%2Ftracker.coppersurfer.tk%3A6969","udp%3A%2F%2Fexodus.desync.com%3A6969"],"infoHash":"8b2a2b5b3fc4ea64c94d712743c5802384482e27","infoHashBuffer":{"type":"Buffer","data":[139,42,43,91,63,196,234,100,201,77,113,39,67,197,128,35,132,72,46,39]},"announce":[],"urlList":[]}}